<?xml version="1.0" encoding="UTF-8" standalone="no"?>
<!DOCTYPE svg PUBLIC "-//W3C//DTD SVG 1.1//EN"
 "http://www.w3.org/Graphics/SVG/1.1/DTD/svg11.dtd">
<!-- Generated by graphviz version 2.47.0 (20210316.0004)
 -->
<!-- Title: dbml Pages: 1 -->
<svg width="1298pt" height="1936pt"
 viewBox="0.00 0.00 1298.41 1936.22" xmlns="http://www.w3.org/2000/svg" xmlns:xlink="http://www.w3.org/1999/xlink">
<g id="graph0" class="graph" transform="scale(1 1) rotate(0) translate(4 1932.22)">
<title>dbml</title>
<!-- users -->
<g id="users" class="node">
<title>users</title>
<ellipse fill="none" stroke="black" stroke-width="0" cx="291.33" cy="-1242.11" rx="246.15" ry="130.22"/>
<polygon fill="#1d71b8" stroke="transparent" points="119.33,-1272.11 119.33,-1332.11 463.33,-1332.11 463.33,-1272.11 119.33,-1272.11"/>
<polygon fill="none" stroke="#29235c" points="119.33,-1272.11 119.33,-1332.11 463.33,-1332.11 463.33,-1272.11 119.33,-1272.11"/>
<text text-anchor="start" x="189.96" y="-1293.31" font-family="Helvetica,sans-Serif" font-weight="bold" font-size="32.00" fill="#ffffff"> &#160;&#160;&#160;&#160;&#160;&#160;users &#160;&#160;&#160;&#160;&#160;&#160;</text>
<polygon fill="#e7e2dd" stroke="transparent" points="119.33,-1212.11 119.33,-1272.11 463.33,-1272.11 463.33,-1212.11 119.33,-1212.11"/>
<polygon fill="none" stroke="#29235c" points="119.33,-1212.11 119.33,-1272.11 463.33,-1272.11 463.33,-1212.11 119.33,-1212.11"/>
<text text-anchor="start" x="130.33" y="-1233.31" font-family="Helvetica,sans-Serif" font-weight="bold" font-size="32.00" fill="#29235c">id</text>
<text text-anchor="start" x="155.22" y="-1233.31" font-family="Helvetica,sans-Serif" font-size="32.00" fill="#29235c"> &#160;&#160;&#160;</text>
<text text-anchor="start" x="354.53" y="-1233.31" font-family="Helvetica,sans-Serif" font-style="italic" font-size="32.00" fill="#29235c">integer</text>
<polygon fill="#e7e2dd" stroke="transparent" points="119.33,-1152.11 119.33,-1212.11 463.33,-1212.11 463.33,-1152.11 119.33,-1152.11"/>
<polygon fill="none" stroke="#29235c" points="119.33,-1152.11 119.33,-1212.11 463.33,-1212.11 463.33,-1152.11 119.33,-1152.11"/>
<text text-anchor="start" x="129.92" y="-1172.31" font-family="Helvetica,sans-Serif" font-size="32.00" fill="#29235c">username &#160;&#160;&#160;</text>
<text text-anchor="start" x="306.95" y="-1173.31" font-family="Helvetica,sans-Serif" font-style="italic" font-size="32.00" fill="#29235c">varchar</text>
<text text-anchor="start" x="413.62" y="-1173.31" font-family="Helvetica,sans-Serif" font-size="32.00" fill="#29235c"> </text>
<text text-anchor="start" x="422.51" y="-1173.31" font-family="Helvetica,sans-Serif" font-weight="bold" font-size="32.00" fill="#29235c">(!)</text>
<polygon fill="none" stroke="#29235c" stroke-width="2" points="118.33,-1151.11 118.33,-1333.11 464.33,-1333.11 464.33,-1151.11 118.33,-1151.11"/>
</g>
<!-- user_biography -->
<g id="user_biography" class="node">
<title>user_biography</title>
<ellipse fill="none" stroke="black" stroke-width="0" cx="954.53" cy="-1520.11" rx="262.17" ry="130.22"/>
<polygon fill="#1d71b8" stroke="transparent" points="771.53,-1550.11 771.53,-1610.11 1138.53,-1610.11 1138.53,-1550.11 771.53,-1550.11"/>
<polygon fill="none" stroke="#29235c" points="771.53,-1550.11 771.53,-1610.11 1138.53,-1610.11 1138.53,-1550.11 771.53,-1550.11"/>
<text text-anchor="start" x="782.53" y="-1571.31" font-family="Helvetica,sans-Serif" font-weight="bold" font-size="32.00" fill="#ffffff"> &#160;&#160;&#160;&#160;&#160;&#160;user_biography &#160;&#160;&#160;&#160;&#160;&#160;</text>
<polygon fill="#e7e2dd" stroke="transparent" points="771.53,-1490.11 771.53,-1550.11 1138.53,-1550.11 1138.53,-1490.11 771.53,-1490.11"/>
<polygon fill="none" stroke="#29235c" points="771.53,-1490.11 771.53,-1550.11 1138.53,-1550.11 1138.53,-1490.11 771.53,-1490.11"/>
<text text-anchor="start" x="782.53" y="-1510.31" font-family="Helvetica,sans-Serif" font-size="32.00" fill="#29235c">id_user &#160;&#160;&#160;</text>
<text text-anchor="start" x="1029.73" y="-1511.31" font-family="Helvetica,sans-Serif" font-style="italic" font-size="32.00" fill="#29235c">integer</text>
<polygon fill="#e7e2dd" stroke="transparent" points="771.53,-1430.11 771.53,-1490.11 1138.53,-1490.11 1138.53,-1430.11 771.53,-1430.11"/>
<polygon fill="none" stroke="#29235c" points="771.53,-1430.11 771.53,-1490.11 1138.53,-1490.11 1138.53,-1430.11 771.53,-1430.11"/>
<text text-anchor="start" x="782.53" y="-1450.31" font-family="Helvetica,sans-Serif" font-size="32.00" fill="#29235c">biography &#160;&#160;&#160;</text>
<text text-anchor="start" x="1020.86" y="-1451.31" font-family="Helvetica,sans-Serif" font-style="italic" font-size="32.00" fill="#29235c">varchar</text>
<polygon fill="none" stroke="#29235c" stroke-width="2" points="770.03,-1429.11 770.03,-1611.11 1139.03,-1611.11 1139.03,-1429.11 770.03,-1429.11"/>
</g>
<!-- users&#45;&gt;user_biography -->
<!-- users&#45;&gt;user_biography -->
<g id="edge6" class="edge">
<title>users:e&#45;&gt;user_biography:w</title>
<path fill="none" stroke="#29235c" stroke-width="3" d="M464.33,-1242.11C644.64,-1242.11 588.97,-1509.62 760.29,-1519.81"/>
<polygon fill="#29235c" stroke="#29235c" stroke-width="3" points="760.43,-1523.31 770.53,-1520.11 760.64,-1516.32 760.43,-1523.31"/>
<text text-anchor="middle" x="779.43" y="-1529.71" font-family="Helvetica,sans-Serif" font-size="32.00" fill="#29235c">1</text>
<text text-anchor="middle" x="455.43" y="-1251.71" font-family="Helvetica,sans-Serif" font-size="32.00" fill="#29235c">1</text>
</g>
<!-- user_gender -->
<g id="user_gender" class="node">
<title>user_gender</title>
<ellipse fill="none" stroke="black" stroke-width="0" cx="954.53" cy="-1242.11" rx="243.9" ry="130.22"/>
<polygon fill="#1d71b8" stroke="transparent" points="784.53,-1272.11 784.53,-1332.11 1125.53,-1332.11 1125.53,-1272.11 784.53,-1272.11"/>
<polygon fill="none" stroke="#29235c" points="784.53,-1272.11 784.53,-1332.11 1125.53,-1332.11 1125.53,-1272.11 784.53,-1272.11"/>
<text text-anchor="start" x="802.97" y="-1293.31" font-family="Helvetica,sans-Serif" font-weight="bold" font-size="32.00" fill="#ffffff"> &#160;&#160;&#160;&#160;&#160;&#160;user_gender &#160;&#160;&#160;&#160;&#160;&#160;</text>
<polygon fill="#e7e2dd" stroke="transparent" points="784.53,-1212.11 784.53,-1272.11 1125.53,-1272.11 1125.53,-1212.11 784.53,-1212.11"/>
<polygon fill="none" stroke="#29235c" points="784.53,-1212.11 784.53,-1272.11 1125.53,-1272.11 1125.53,-1212.11 784.53,-1212.11"/>
<text text-anchor="start" x="795.53" y="-1232.31" font-family="Helvetica,sans-Serif" font-size="32.00" fill="#29235c">id_user &#160;&#160;&#160;</text>
<text text-anchor="start" x="1016.73" y="-1233.31" font-family="Helvetica,sans-Serif" font-style="italic" font-size="32.00" fill="#29235c">integer</text>
<polygon fill="#e7e2dd" stroke="transparent" points="784.53,-1152.11 784.53,-1212.11 1125.53,-1212.11 1125.53,-1152.11 784.53,-1152.11"/>
<polygon fill="none" stroke="#29235c" points="784.53,-1152.11 784.53,-1212.11 1125.53,-1212.11 1125.53,-1152.11 784.53,-1152.11"/>
<text text-anchor="start" x="795.45" y="-1172.31" font-family="Helvetica,sans-Serif" font-size="32.00" fill="#29235c">gender &#160;&#160;&#160;</text>
<text text-anchor="start" x="930.1" y="-1173.31" font-family="Helvetica,sans-Serif" font-style="italic" font-size="32.00" fill="#29235c">varchar(1)</text>
<text text-anchor="start" x="1075.87" y="-1173.31" font-family="Helvetica,sans-Serif" font-size="32.00" fill="#29235c"> </text>
<text text-anchor="start" x="1084.76" y="-1173.31" font-family="Helvetica,sans-Serif" font-weight="bold" font-size="32.00" fill="#29235c">(!)</text>
<polygon fill="none" stroke="#29235c" stroke-width="2" points="783.03,-1151.11 783.03,-1333.11 1126.03,-1333.11 1126.03,-1151.11 783.03,-1151.11"/>
</g>
<!-- users&#45;&gt;user_gender -->
<!-- users&#45;&gt;user_gender -->
<g id="edge4" class="edge">
<title>users:e&#45;&gt;user_gender:w</title>
<path fill="none" stroke="#29235c" stroke-width="3" d="M464.33,-1242.11C602.73,-1242.11 639.87,-1242.11 773.33,-1242.11"/>
<polygon fill="#29235c" stroke="#29235c" stroke-width="3" points="773.53,-1245.61 783.53,-1242.11 773.53,-1238.61 773.53,-1245.61"/>
<text text-anchor="middle" x="792.43" y="-1251.71" font-family="Helvetica,sans-Serif" font-size="32.00" fill="#29235c">1</text>
<text text-anchor="middle" x="455.43" y="-1213.31" font-family="Helvetica,sans-Serif" font-size="32.00" fill="#29235c">1</text>
</g>
<!-- user_createdat -->
<g id="user_createdat" class="node">
<title>user_createdat</title>
<ellipse fill="none" stroke="black" stroke-width="0" cx="954.53" cy="-1798.11" rx="256.86" ry="130.22"/>
<polygon fill="#1d71b8" stroke="transparent" points="775.53,-1828.11 775.53,-1888.11 1134.53,-1888.11 1134.53,-1828.11 775.53,-1828.11"/>
<polygon fill="none" stroke="#29235c" points="775.53,-1828.11 775.53,-1888.11 1134.53,-1888.11 1134.53,-1828.11 775.53,-1828.11"/>
<text text-anchor="start" x="786.08" y="-1849.31" font-family="Helvetica,sans-Serif" font-weight="bold" font-size="32.00" fill="#ffffff"> &#160;&#160;&#160;&#160;&#160;&#160;user_createdat &#160;&#160;&#160;&#160;&#160;&#160;</text>
<polygon fill="#e7e2dd" stroke="transparent" points="775.53,-1768.11 775.53,-1828.11 1134.53,-1828.11 1134.53,-1768.11 775.53,-1768.11"/>
<polygon fill="none" stroke="#29235c" points="775.53,-1768.11 775.53,-1828.11 1134.53,-1828.11 1134.53,-1768.11 775.53,-1768.11"/>
<text text-anchor="start" x="786.53" y="-1788.31" font-family="Helvetica,sans-Serif" font-size="32.00" fill="#29235c">id_user &#160;&#160;&#160;</text>
<text text-anchor="start" x="1025.73" y="-1789.31" font-family="Helvetica,sans-Serif" font-style="italic" font-size="32.00" fill="#29235c">integer</text>
<polygon fill="#e7e2dd" stroke="transparent" points="775.53,-1708.11 775.53,-1768.11 1134.53,-1768.11 1134.53,-1708.11 775.53,-1708.11"/>
<polygon fill="none" stroke="#29235c" points="775.53,-1708.11 775.53,-1768.11 1134.53,-1768.11 1134.53,-1708.11 775.53,-1708.11"/>
<text text-anchor="start" x="786.53" y="-1728.31" font-family="Helvetica,sans-Serif" font-size="32.00" fill="#29235c">created_at &#160;&#160;&#160;</text>
<text text-anchor="start" x="975.97" y="-1729.31" font-family="Helvetica,sans-Serif" font-style="italic" font-size="32.00" fill="#29235c">timestamp</text>
<polygon fill="none" stroke="#29235c" stroke-width="2" points="774.03,-1707.11 774.03,-1889.11 1135.03,-1889.11 1135.03,-1707.11 774.03,-1707.11"/>
</g>
<!-- users&#45;&gt;user_createdat -->
<!-- users&#45;&gt;user_createdat -->
<g id="edge2" class="edge">
<title>users:e&#45;&gt;user_createdat:w</title>
<path fill="none" stroke="#29235c" stroke-width="3" d="M464.33,-1242.11C661.95,-1242.11 507.31,-1495.84 618.66,-1659.11 669.01,-1732.95 680.85,-1793.46 764.53,-1797.85"/>
<polygon fill="#29235c" stroke="#29235c" stroke-width="3" points="764.45,-1801.35 774.53,-1798.11 764.62,-1794.35 764.45,-1801.35"/>
<text text-anchor="middle" x="783.43" y="-1807.71" font-family="Helvetica,sans-Serif" font-size="32.00" fill="#29235c">1</text>
<text text-anchor="middle" x="473.22" y="-1251.71" font-family="Helvetica,sans-Serif" font-size="32.00" fill="#29235c">1</text>
</g>
<!-- user_interest -->
<g id="user_interest" class="node">
<title>user_interest</title>
<ellipse fill="none" stroke="black" stroke-width="0" cx="954.53" cy="-964.11" rx="236.76" ry="130.22"/>
<polygon fill="#1d71b8" stroke="transparent" points="789.53,-994.11 789.53,-1054.11 1120.53,-1054.11 1120.53,-994.11 789.53,-994.11"/>
<polygon fill="none" stroke="#29235c" points="789.53,-994.11 789.53,-1054.11 1120.53,-1054.11 1120.53,-994.11 789.53,-994.11"/>
<text text-anchor="start" x="800.32" y="-1015.31" font-family="Helvetica,sans-Serif" font-weight="bold" font-size="32.00" fill="#ffffff"> &#160;&#160;&#160;&#160;&#160;&#160;user_interest &#160;&#160;&#160;&#160;&#160;&#160;</text>
<polygon fill="#e7e2dd" stroke="transparent" points="789.53,-934.11 789.53,-994.11 1120.53,-994.11 1120.53,-934.11 789.53,-934.11"/>
<polygon fill="none" stroke="#29235c" points="789.53,-934.11 789.53,-994.11 1120.53,-994.11 1120.53,-934.11 789.53,-934.11"/>
<text text-anchor="start" x="800.53" y="-954.31" font-family="Helvetica,sans-Serif" font-size="32.00" fill="#29235c">id_user &#160;&#160;&#160;</text>
<text text-anchor="start" x="1011.73" y="-955.31" font-family="Helvetica,sans-Serif" font-style="italic" font-size="32.00" fill="#29235c">integer</text>
<polygon fill="#e7e2dd" stroke="transparent" points="789.53,-874.11 789.53,-934.11 1120.53,-934.11 1120.53,-874.11 789.53,-874.11"/>
<polygon fill="none" stroke="#29235c" points="789.53,-874.11 789.53,-934.11 1120.53,-934.11 1120.53,-874.11 789.53,-874.11"/>
<text text-anchor="start" x="800.53" y="-894.31" font-family="Helvetica,sans-Serif" font-size="32.00" fill="#29235c">id_interest &#160;&#160;&#160;</text>
<text text-anchor="start" x="1011.73" y="-895.31" font-family="Helvetica,sans-Serif" font-style="italic" font-size="32.00" fill="#29235c">integer</text>
<polygon fill="none" stroke="#29235c" stroke-width="2" points="788.03,-873.11 788.03,-1055.11 1121.03,-1055.11 1121.03,-873.11 788.03,-873.11"/>
</g>
<!-- users&#45;&gt;user_interest -->
<!-- users&#45;&gt;user_interest -->
<g id="edge12" class="edge">
<title>users:e&#45;&gt;user_interest:w</title>
<path fill="none" stroke="#29235c" stroke-width="3" d="M464.33,-1242.11C556.64,-1242.11 548.62,-1163.24 618.66,-1103.11 690,-1041.85 691,-969.54 778.34,-964.4"/>
<polygon fill="#29235c" stroke="#29235c" stroke-width="3" points="778.64,-967.89 788.53,-964.11 778.44,-960.89 778.64,-967.89"/>
<text text-anchor="middle" x="794.75" y="-973.71" font-family="Helvetica,sans-Serif" font-size="32.00" fill="#29235c">*</text>
<text text-anchor="middle" x="473.22" y="-1213.31" font-family="Helvetica,sans-Serif" font-size="32.00" fill="#29235c">1</text>
</g>
<!-- user_picture -->
<g id="user_picture" class="node">
<title>user_picture</title>
<ellipse fill="none" stroke="black" stroke-width="0" cx="954.53" cy="-408.11" rx="230.53" ry="130.22"/>
<polygon fill="#1d71b8" stroke="transparent" points="793.53,-438.11 793.53,-498.11 1115.53,-498.11 1115.53,-438.11 793.53,-438.11"/>
<polygon fill="none" stroke="#29235c" points="793.53,-438.11 793.53,-498.11 1115.53,-498.11 1115.53,-438.11 793.53,-438.11"/>
<text text-anchor="start" x="804.27" y="-459.31" font-family="Helvetica,sans-Serif" font-weight="bold" font-size="32.00" fill="#ffffff"> &#160;&#160;&#160;&#160;&#160;&#160;user_picture &#160;&#160;&#160;&#160;&#160;&#160;</text>
<polygon fill="#e7e2dd" stroke="transparent" points="793.53,-378.11 793.53,-438.11 1115.53,-438.11 1115.53,-378.11 793.53,-378.11"/>
<polygon fill="none" stroke="#29235c" points="793.53,-378.11 793.53,-438.11 1115.53,-438.11 1115.53,-378.11 793.53,-378.11"/>
<text text-anchor="start" x="804.53" y="-398.31" font-family="Helvetica,sans-Serif" font-size="32.00" fill="#29235c">id_user &#160;&#160;&#160;</text>
<text text-anchor="start" x="1006.73" y="-399.31" font-family="Helvetica,sans-Serif" font-style="italic" font-size="32.00" fill="#29235c">integer</text>
<polygon fill="#e7e2dd" stroke="transparent" points="793.53,-318.11 793.53,-378.11 1115.53,-378.11 1115.53,-318.11 793.53,-318.11"/>
<polygon fill="none" stroke="#29235c" points="793.53,-318.11 793.53,-378.11 1115.53,-378.11 1115.53,-318.11 793.53,-318.11"/>
<text text-anchor="start" x="804.53" y="-338.31" font-family="Helvetica,sans-Serif" font-size="32.00" fill="#29235c">id_picture &#160;&#160;&#160;</text>
<text text-anchor="start" x="1006.73" y="-339.31" font-family="Helvetica,sans-Serif" font-style="italic" font-size="32.00" fill="#29235c">integer</text>
<polygon fill="none" stroke="#29235c" stroke-width="2" points="792.53,-317.11 792.53,-499.11 1116.53,-499.11 1116.53,-317.11 792.53,-317.11"/>
</g>
<!-- users&#45;&gt;user_picture -->
<!-- users&#45;&gt;user_picture -->
<g id="edge16" class="edge">
<title>users:e&#45;&gt;user_picture:w</title>
<path fill="none" stroke="#29235c" stroke-width="3" d="M464.33,-1242.11C545.46,-1242.11 552.19,-1178.3 582.66,-1103.11 629.15,-988.35 561.42,-656.9 618.66,-547.11 662.78,-462.46 691.52,-411.76 782.35,-408.3"/>
<polygon fill="#29235c" stroke="#29235c" stroke-width="3" points="782.6,-411.79 792.53,-408.11 782.47,-404.79 782.6,-411.79"/>
<text text-anchor="middle" x="798.75" y="-417.71" font-family="Helvetica,sans-Serif" font-size="32.00" fill="#29235c">*</text>
<text text-anchor="middle" x="455.43" y="-1251.71" font-family="Helvetica,sans-Serif" font-size="32.00" fill="#29235c">1</text>
</g>
<!-- user_sexualpreference -->
<g id="user_sexualpreference" class="node">
<title>user_sexualpreference</title>
<ellipse fill="none" stroke="black" stroke-width="0" cx="954.53" cy="-686.11" rx="335.75" ry="130.22"/>
<polygon fill="#1d71b8" stroke="transparent" points="719.53,-716.11 719.53,-776.11 1190.53,-776.11 1190.53,-716.11 719.53,-716.11"/>
<polygon fill="none" stroke="#29235c" points="719.53,-716.11 719.53,-776.11 1190.53,-776.11 1190.53,-716.11 719.53,-716.11"/>
<text text-anchor="start" x="730.07" y="-737.31" font-family="Helvetica,sans-Serif" font-weight="bold" font-size="32.00" fill="#ffffff"> &#160;&#160;&#160;&#160;&#160;&#160;user_sexualpreference &#160;&#160;&#160;&#160;&#160;&#160;</text>
<polygon fill="#e7e2dd" stroke="transparent" points="719.53,-656.11 719.53,-716.11 1190.53,-716.11 1190.53,-656.11 719.53,-656.11"/>
<polygon fill="none" stroke="#29235c" points="719.53,-656.11 719.53,-716.11 1190.53,-716.11 1190.53,-656.11 719.53,-656.11"/>
<text text-anchor="start" x="730.53" y="-676.31" font-family="Helvetica,sans-Serif" font-size="32.00" fill="#29235c">id_user &#160;&#160;&#160;</text>
<text text-anchor="start" x="1081.73" y="-677.31" font-family="Helvetica,sans-Serif" font-style="italic" font-size="32.00" fill="#29235c">integer</text>
<polygon fill="#e7e2dd" stroke="transparent" points="719.53,-596.11 719.53,-656.11 1190.53,-656.11 1190.53,-596.11 719.53,-596.11"/>
<polygon fill="none" stroke="#29235c" points="719.53,-596.11 719.53,-656.11 1190.53,-656.11 1190.53,-596.11 719.53,-596.11"/>
<text text-anchor="start" x="730.53" y="-616.31" font-family="Helvetica,sans-Serif" font-size="32.00" fill="#29235c">id_sexualpreference &#160;&#160;&#160;</text>
<text text-anchor="start" x="1081.73" y="-617.31" font-family="Helvetica,sans-Serif" font-style="italic" font-size="32.00" fill="#29235c">integer</text>
<polygon fill="none" stroke="#29235c" stroke-width="2" points="718.03,-595.11 718.03,-777.11 1191.03,-777.11 1191.03,-595.11 718.03,-595.11"/>
</g>
<!-- users&#45;&gt;user_sexualpreference -->
<!-- users&#45;&gt;user_sexualpreference -->
<g id="edge8" class="edge">
<title>users:e&#45;&gt;user_sexualpreference:w</title>
<path fill="none" stroke="#29235c" stroke-width="3" d="M464.33,-1242.11C732.59,-1242.11 454.07,-700.14 708.45,-686.37"/>
<polygon fill="#29235c" stroke="#29235c" stroke-width="3" points="708.63,-689.87 718.53,-686.11 708.44,-682.87 708.63,-689.87"/>
<text text-anchor="middle" x="724.75" y="-695.71" font-family="Helvetica,sans-Serif" font-size="32.00" fill="#29235c">*</text>
<text text-anchor="middle" x="455.43" y="-1213.31" font-family="Helvetica,sans-Serif" font-size="32.00" fill="#29235c">1</text>
</g>
<!-- sexualpreference -->
<g id="sexualpreference" class="node">
<title>sexualpreference</title>
<ellipse fill="none" stroke="black" stroke-width="0" cx="291.33" cy="-686.11" rx="291.16" ry="130.22"/>
<polygon fill="#1d71b8" stroke="transparent" points="87.33,-716.11 87.33,-776.11 495.33,-776.11 495.33,-716.11 87.33,-716.11"/>
<polygon fill="none" stroke="#29235c" points="87.33,-716.11 87.33,-776.11 495.33,-776.11 495.33,-716.11 87.33,-716.11"/>
<text text-anchor="start" x="106.38" y="-737.31" font-family="Helvetica,sans-Serif" font-weight="bold" font-size="32.00" fill="#ffffff"> &#160;&#160;&#160;&#160;&#160;&#160;sexualpreference &#160;&#160;&#160;&#160;&#160;&#160;</text>
<polygon fill="#e7e2dd" stroke="transparent" points="87.33,-656.11 87.33,-716.11 495.33,-716.11 495.33,-656.11 87.33,-656.11"/>
<polygon fill="none" stroke="#29235c" points="87.33,-656.11 87.33,-716.11 495.33,-716.11 495.33,-656.11 87.33,-656.11"/>
<text text-anchor="start" x="98.33" y="-677.31" font-family="Helvetica,sans-Serif" font-weight="bold" font-size="32.00" fill="#29235c">id</text>
<text text-anchor="start" x="123.22" y="-677.31" font-family="Helvetica,sans-Serif" font-size="32.00" fill="#29235c"> &#160;&#160;&#160;</text>
<text text-anchor="start" x="386.53" y="-677.31" font-family="Helvetica,sans-Serif" font-style="italic" font-size="32.00" fill="#29235c">integer</text>
<polygon fill="#e7e2dd" stroke="transparent" points="87.33,-596.11 87.33,-656.11 495.33,-656.11 495.33,-596.11 87.33,-596.11"/>
<polygon fill="none" stroke="#29235c" points="87.33,-596.11 87.33,-656.11 495.33,-656.11 495.33,-596.11 87.33,-596.11"/>
<text text-anchor="start" x="97.84" y="-616.31" font-family="Helvetica,sans-Serif" font-size="32.00" fill="#29235c">sexualpreference &#160;&#160;&#160;</text>
<text text-anchor="start" x="377.99" y="-617.31" font-family="Helvetica,sans-Serif" font-style="italic" font-size="32.00" fill="#29235c">varchar</text>
<polygon fill="none" stroke="#29235c" stroke-width="2" points="86.33,-595.11 86.33,-777.11 496.33,-777.11 496.33,-595.11 86.33,-595.11"/>
</g>
<!-- sexualpreference&#45;&gt;user_sexualpreference -->
<!-- sexualpreference&#45;&gt;user_sexualpreference -->
<g id="edge10" class="edge">
<title>sexualpreference:e&#45;&gt;user_sexualpreference:w</title>
<path fill="none" stroke="#29235c" stroke-width="3" d="M496.33,-686.11C595.13,-686.11 614.93,-630.14 708.33,-626.31"/>
<polygon fill="#29235c" stroke="#29235c" stroke-width="3" points="708.6,-629.81 718.53,-626.11 708.46,-622.81 708.6,-629.81"/>
<text text-anchor="middle" x="727.43" y="-635.71" font-family="Helvetica,sans-Serif" font-size="32.00" fill="#29235c">1</text>
<text text-anchor="middle" x="487.43" y="-695.71" font-family="Helvetica,sans-Serif" font-size="32.00" fill="#29235c">1</text>
</g>
<!-- interest -->
<g id="interest" class="node">
<title>interest</title>
<ellipse fill="none" stroke="black" stroke-width="0" cx="291.33" cy="-964.11" rx="192.17" ry="130.22"/>
<polygon fill="#1d71b8" stroke="transparent" points="157.33,-994.11 157.33,-1054.11 425.33,-1054.11 425.33,-994.11 157.33,-994.11"/>
<polygon fill="none" stroke="#29235c" points="157.33,-994.11 157.33,-1054.11 425.33,-1054.11 425.33,-994.11 157.33,-994.11"/>
<text text-anchor="start" x="176.63" y="-1015.31" font-family="Helvetica,sans-Serif" font-weight="bold" font-size="32.00" fill="#ffffff"> &#160;&#160;&#160;&#160;&#160;&#160;interest &#160;&#160;&#160;&#160;&#160;&#160;</text>
<polygon fill="#e7e2dd" stroke="transparent" points="157.33,-934.11 157.33,-994.11 425.33,-994.11 425.33,-934.11 157.33,-934.11"/>
<polygon fill="none" stroke="#29235c" points="157.33,-934.11 157.33,-994.11 425.33,-994.11 425.33,-934.11 157.33,-934.11"/>
<text text-anchor="start" x="168.33" y="-955.31" font-family="Helvetica,sans-Serif" font-weight="bold" font-size="32.00" fill="#29235c">id</text>
<text text-anchor="start" x="193.22" y="-955.31" font-family="Helvetica,sans-Serif" font-size="32.00" fill="#29235c"> &#160;&#160;&#160;</text>
<text text-anchor="start" x="316.53" y="-955.31" font-family="Helvetica,sans-Serif" font-style="italic" font-size="32.00" fill="#29235c">integer</text>
<polygon fill="#e7e2dd" stroke="transparent" points="157.33,-874.11 157.33,-934.11 425.33,-934.11 425.33,-874.11 157.33,-874.11"/>
<polygon fill="none" stroke="#29235c" points="157.33,-874.11 157.33,-934.11 425.33,-934.11 425.33,-874.11 157.33,-874.11"/>
<text text-anchor="start" x="168.09" y="-894.31" font-family="Helvetica,sans-Serif" font-size="32.00" fill="#29235c">interest &#160;&#160;&#160;</text>
<text text-anchor="start" x="307.99" y="-895.31" font-family="Helvetica,sans-Serif" font-style="italic" font-size="32.00" fill="#29235c">varchar</text>
<polygon fill="none" stroke="#29235c" stroke-width="2" points="156.33,-873.11 156.33,-1055.11 426.33,-1055.11 426.33,-873.11 156.33,-873.11"/>
</g>
<!-- interest&#45;&gt;user_interest -->
<!-- interest&#45;&gt;user_interest -->
<g id="edge14" class="edge">
<title>interest:e&#45;&gt;user_interest:w</title>
<path fill="none" stroke="#29235c" stroke-width="3" d="M426.33,-964.11C586,-964.11 623.76,-906.66 778.19,-904.19"/>
<polygon fill="#29235c" stroke="#29235c" stroke-width="3" points="778.56,-907.69 788.53,-904.11 778.5,-900.69 778.56,-907.69"/>
<text text-anchor="middle" x="797.43" y="-913.71" font-family="Helvetica,sans-Serif" font-size="32.00" fill="#29235c">1</text>
<text text-anchor="middle" x="417.43" y="-973.71" font-family="Helvetica,sans-Serif" font-size="32.00" fill="#29235c">1</text>
</g>
<!-- picture -->
<g id="picture" class="node">
<title>picture</title>
<ellipse fill="none" stroke="black" stroke-width="0" cx="291.33" cy="-239.11" rx="242.58" ry="130.22"/>
<polygon fill="#1d71b8" stroke="transparent" points="122.33,-269.11 122.33,-329.11 461.33,-329.11 461.33,-269.11 122.33,-269.11"/>
<polygon fill="none" stroke="#29235c" points="122.33,-269.11 122.33,-329.11 461.33,-329.11 461.33,-269.11 122.33,-269.11"/>
<text text-anchor="start" x="181.57" y="-290.31" font-family="Helvetica,sans-Serif" font-weight="bold" font-size="32.00" fill="#ffffff"> &#160;&#160;&#160;&#160;&#160;&#160;picture &#160;&#160;&#160;&#160;&#160;&#160;</text>
<polygon fill="#e7e2dd" stroke="transparent" points="122.33,-209.11 122.33,-269.11 461.33,-269.11 461.33,-209.11 122.33,-209.11"/>
<polygon fill="none" stroke="#29235c" points="122.33,-209.11 122.33,-269.11 461.33,-269.11 461.33,-209.11 122.33,-209.11"/>
<text text-anchor="start" x="133.33" y="-230.31" font-family="Helvetica,sans-Serif" font-weight="bold" font-size="32.00" fill="#29235c">id</text>
<text text-anchor="start" x="158.22" y="-230.31" font-family="Helvetica,sans-Serif" font-size="32.00" fill="#29235c"> &#160;&#160;&#160;</text>
<text text-anchor="start" x="352.53" y="-230.31" font-family="Helvetica,sans-Serif" font-style="italic" font-size="32.00" fill="#29235c">integer</text>
<polygon fill="#e7e2dd" stroke="transparent" points="122.33,-149.11 122.33,-209.11 461.33,-209.11 461.33,-149.11 122.33,-149.11"/>
<polygon fill="none" stroke="#29235c" points="122.33,-149.11 122.33,-209.11 461.33,-209.11 461.33,-149.11 122.33,-149.11"/>
<text text-anchor="start" x="133.01" y="-169.31" font-family="Helvetica,sans-Serif" font-size="32.00" fill="#29235c">picture_path &#160;&#160;&#160;</text>
<text text-anchor="start" x="343.99" y="-170.31" font-family="Helvetica,sans-Serif" font-style="italic" font-size="32.00" fill="#29235c">varchar</text>
<polygon fill="none" stroke="#29235c" stroke-width="2" points="120.83,-148.11 120.83,-330.11 461.83,-330.11 461.83,-148.11 120.83,-148.11"/>
</g>
<!-- picture_profile -->
<g id="picture_profile" class="node">
<title>picture_profile</title>
<ellipse fill="none" stroke="black" stroke-width="0" cx="954.53" cy="-130.11" rx="294.31" ry="130.22"/>
<polygon fill="#1d71b8" stroke="transparent" points="748.53,-160.11 748.53,-220.11 1160.53,-220.11 1160.53,-160.11 748.53,-160.11"/>
<polygon fill="none" stroke="#29235c" points="748.53,-160.11 748.53,-220.11 1160.53,-220.11 1160.53,-160.11 748.53,-160.11"/>
<text text-anchor="start" x="791.82" y="-181.31" font-family="Helvetica,sans-Serif" font-weight="bold" font-size="32.00" fill="#ffffff"> &#160;&#160;&#160;&#160;&#160;&#160;picture_profile &#160;&#160;&#160;&#160;&#160;&#160;</text>
<polygon fill="#e7e2dd" stroke="transparent" points="748.53,-100.11 748.53,-160.11 1160.53,-160.11 1160.53,-100.11 748.53,-100.11"/>
<polygon fill="none" stroke="#29235c" points="748.53,-100.11 748.53,-160.11 1160.53,-160.11 1160.53,-100.11 748.53,-100.11"/>
<text text-anchor="start" x="759.53" y="-120.31" font-family="Helvetica,sans-Serif" font-size="32.00" fill="#29235c">id_picture &#160;&#160;&#160;</text>
<text text-anchor="start" x="1051.73" y="-121.31" font-family="Helvetica,sans-Serif" font-style="italic" font-size="32.00" fill="#29235c">integer</text>
<polygon fill="#e7e2dd" stroke="transparent" points="748.53,-40.11 748.53,-100.11 1160.53,-100.11 1160.53,-40.11 748.53,-40.11"/>
<polygon fill="none" stroke="#29235c" points="748.53,-40.11 748.53,-100.11 1160.53,-100.11 1160.53,-40.11 748.53,-40.11"/>
<text text-anchor="start" x="759.34" y="-60.31" font-family="Helvetica,sans-Serif" font-size="32.00" fill="#29235c">is_profile_picture &#160;&#160;&#160;</text>
<text text-anchor="start" x="1036.11" y="-61.31" font-family="Helvetica,sans-Serif" font-style="italic" font-size="32.00" fill="#29235c">boolean</text>
<polygon fill="none" stroke="#29235c" stroke-width="2" points="747.53,-39.11 747.53,-221.11 1161.53,-221.11 1161.53,-39.11 747.53,-39.11"/>
</g>
<!-- picture&#45;&gt;picture_profile -->
<!-- picture&#45;&gt;picture_profile -->
<g id="edge20" class="edge">
<title>picture:e&#45;&gt;picture_profile:w</title>
<path fill="none" stroke="#29235c" stroke-width="3" d="M462.33,-239.11C594.58,-239.11 611.05,-135.57 737.43,-130.31"/>
<polygon fill="#29235c" stroke="#29235c" stroke-width="3" points="737.61,-133.81 747.53,-130.11 737.46,-126.81 737.61,-133.81"/>
<text text-anchor="middle" x="756.43" y="-130.11" font-family="Helvetica,sans-Serif" font-size="32.00" fill="#29235c">1</text>
<text text-anchor="middle" x="453.43" y="-210.31" font-family="Helvetica,sans-Serif" font-size="32.00" fill="#29235c">1</text>
</g>
<!-- picture&#45;&gt;user_picture -->
<!-- picture&#45;&gt;user_picture -->
<g id="edge18" class="edge">
<title>picture:e&#45;&gt;user_picture:w</title>
<path fill="none" stroke="#29235c" stroke-width="3" d="M462.33,-239.11C613.4,-239.11 636.97,-343.27 782.32,-347.95"/>
<polygon fill="#29235c" stroke="#29235c" stroke-width="3" points="782.48,-351.45 792.53,-348.11 782.59,-344.45 782.48,-351.45"/>
<text text-anchor="middle" x="801.43" y="-348.11" font-family="Helvetica,sans-Serif" font-size="32.00" fill="#29235c">1</text>
<text text-anchor="middle" x="453.43" y="-248.71" font-family="Helvetica,sans-Serif" font-size="32.00" fill="#29235c">1</text>
</g>
</g>
</svg>
