<?xml version="1.0" encoding="UTF-8" standalone="no"?>
<!DOCTYPE svg PUBLIC "-//W3C//DTD SVG 1.1//EN"
 "http://www.w3.org/Graphics/SVG/1.1/DTD/svg11.dtd">
<!-- Generated by graphviz version 2.47.0 (20210316.0004)
 -->
<!-- Title: dbml Pages: 1 -->
<svg width="1304pt" height="1612pt"
 viewBox="0.00 0.00 1304.06 1612.22" xmlns="http://www.w3.org/2000/svg" xmlns:xlink="http://www.w3.org/1999/xlink">
<g id="graph0" class="graph" transform="scale(1 1) rotate(0) translate(4 1608.22)">
<title>dbml</title>
<!-- users -->
<g id="users" class="node">
<title>users</title>
<ellipse fill="none" stroke="black" stroke-width="0" cx="294.16" cy="-984.11" rx="253.7" ry="342.48"/>
<polygon fill="#1d71b8" stroke="transparent" points="117.16,-1164.11 117.16,-1224.11 472.16,-1224.11 472.16,-1164.11 117.16,-1164.11"/>
<polygon fill="none" stroke="#29235c" points="117.16,-1164.11 117.16,-1224.11 472.16,-1224.11 472.16,-1164.11 117.16,-1164.11"/>
<text text-anchor="start" x="193.29" y="-1185.31" font-family="Helvetica,sans-Serif" font-weight="bold" font-size="32.00" fill="#ffffff"> &#160;&#160;&#160;&#160;&#160;&#160;users &#160;&#160;&#160;&#160;&#160;&#160;</text>
<polygon fill="#e7e2dd" stroke="transparent" points="117.16,-1104.11 117.16,-1164.11 472.16,-1164.11 472.16,-1104.11 117.16,-1104.11"/>
<polygon fill="none" stroke="#29235c" points="117.16,-1104.11 117.16,-1164.11 472.16,-1164.11 472.16,-1104.11 117.16,-1104.11"/>
<text text-anchor="start" x="128.16" y="-1125.31" font-family="Helvetica,sans-Serif" font-weight="bold" font-size="32.00" fill="#29235c">id</text>
<text text-anchor="start" x="153.05" y="-1125.31" font-family="Helvetica,sans-Serif" font-size="32.00" fill="#29235c"> &#160;&#160;&#160;</text>
<text text-anchor="start" x="363.35" y="-1125.31" font-family="Helvetica,sans-Serif" font-style="italic" font-size="32.00" fill="#29235c">integer</text>
<polygon fill="#e7e2dd" stroke="transparent" points="117.16,-1044.11 117.16,-1104.11 472.16,-1104.11 472.16,-1044.11 117.16,-1044.11"/>
<polygon fill="none" stroke="#29235c" points="117.16,-1044.11 117.16,-1104.11 472.16,-1104.11 472.16,-1044.11 117.16,-1044.11"/>
<text text-anchor="start" x="128.16" y="-1064.31" font-family="Helvetica,sans-Serif" font-size="32.00" fill="#29235c">username &#160;&#160;&#160;</text>
<text text-anchor="start" x="315.39" y="-1065.31" font-family="Helvetica,sans-Serif" font-style="italic" font-size="32.00" fill="#29235c">varchar</text>
<text text-anchor="start" x="422.07" y="-1065.31" font-family="Helvetica,sans-Serif" font-size="32.00" fill="#29235c"> </text>
<text text-anchor="start" x="430.96" y="-1065.31" font-family="Helvetica,sans-Serif" font-weight="bold" font-size="32.00" fill="#29235c">(!)</text>
<polygon fill="#e7e2dd" stroke="transparent" points="117.16,-984.11 117.16,-1044.11 472.16,-1044.11 472.16,-984.11 117.16,-984.11"/>
<polygon fill="none" stroke="#29235c" points="117.16,-984.11 117.16,-1044.11 472.16,-1044.11 472.16,-984.11 117.16,-984.11"/>
<text text-anchor="start" x="128.16" y="-1004.31" font-family="Helvetica,sans-Serif" font-size="32.00" fill="#29235c">password &#160;&#160;&#160;</text>
<text text-anchor="start" x="315.39" y="-1005.31" font-family="Helvetica,sans-Serif" font-style="italic" font-size="32.00" fill="#29235c">varchar</text>
<text text-anchor="start" x="422.07" y="-1005.31" font-family="Helvetica,sans-Serif" font-size="32.00" fill="#29235c"> </text>
<text text-anchor="start" x="430.96" y="-1005.31" font-family="Helvetica,sans-Serif" font-weight="bold" font-size="32.00" fill="#29235c">(!)</text>
<polygon fill="#e7e2dd" stroke="transparent" points="117.16,-924.11 117.16,-984.11 472.16,-984.11 472.16,-924.11 117.16,-924.11"/>
<polygon fill="none" stroke="#29235c" points="117.16,-924.11 117.16,-984.11 472.16,-984.11 472.16,-924.11 117.16,-924.11"/>
<text text-anchor="start" x="128.16" y="-944.31" font-family="Helvetica,sans-Serif" font-size="32.00" fill="#29235c">firstname &#160;&#160;&#160;</text>
<text text-anchor="start" x="315.39" y="-945.31" font-family="Helvetica,sans-Serif" font-style="italic" font-size="32.00" fill="#29235c">varchar</text>
<text text-anchor="start" x="422.07" y="-945.31" font-family="Helvetica,sans-Serif" font-size="32.00" fill="#29235c"> </text>
<text text-anchor="start" x="430.96" y="-945.31" font-family="Helvetica,sans-Serif" font-weight="bold" font-size="32.00" fill="#29235c">(!)</text>
<polygon fill="#e7e2dd" stroke="transparent" points="117.16,-864.11 117.16,-924.11 472.16,-924.11 472.16,-864.11 117.16,-864.11"/>
<polygon fill="none" stroke="#29235c" points="117.16,-864.11 117.16,-924.11 472.16,-924.11 472.16,-864.11 117.16,-864.11"/>
<text text-anchor="start" x="128.16" y="-884.31" font-family="Helvetica,sans-Serif" font-size="32.00" fill="#29235c">lastname &#160;&#160;&#160;</text>
<text text-anchor="start" x="315.39" y="-885.31" font-family="Helvetica,sans-Serif" font-style="italic" font-size="32.00" fill="#29235c">varchar</text>
<text text-anchor="start" x="422.07" y="-885.31" font-family="Helvetica,sans-Serif" font-size="32.00" fill="#29235c"> </text>
<text text-anchor="start" x="430.96" y="-885.31" font-family="Helvetica,sans-Serif" font-weight="bold" font-size="32.00" fill="#29235c">(!)</text>
<polygon fill="#e7e2dd" stroke="transparent" points="117.16,-804.11 117.16,-864.11 472.16,-864.11 472.16,-804.11 117.16,-804.11"/>
<polygon fill="none" stroke="#29235c" points="117.16,-804.11 117.16,-864.11 472.16,-864.11 472.16,-804.11 117.16,-804.11"/>
<text text-anchor="start" x="128.16" y="-824.31" font-family="Helvetica,sans-Serif" font-size="32.00" fill="#29235c">email &#160;&#160;&#160;</text>
<text text-anchor="start" x="315.39" y="-825.31" font-family="Helvetica,sans-Serif" font-style="italic" font-size="32.00" fill="#29235c">varchar</text>
<text text-anchor="start" x="422.07" y="-825.31" font-family="Helvetica,sans-Serif" font-size="32.00" fill="#29235c"> </text>
<text text-anchor="start" x="430.96" y="-825.31" font-family="Helvetica,sans-Serif" font-weight="bold" font-size="32.00" fill="#29235c">(!)</text>
<polygon fill="#e7e2dd" stroke="transparent" points="117.16,-744.11 117.16,-804.11 472.16,-804.11 472.16,-744.11 117.16,-744.11"/>
<polygon fill="none" stroke="#29235c" points="117.16,-744.11 117.16,-804.11 472.16,-804.11 472.16,-744.11 117.16,-744.11"/>
<text text-anchor="start" x="127.79" y="-764.31" font-family="Helvetica,sans-Serif" font-size="32.00" fill="#29235c">created_at &#160;&#160;&#160;</text>
<text text-anchor="start" x="313.88" y="-765.31" font-family="Helvetica,sans-Serif" font-style="italic" font-size="32.00" fill="#29235c">timestamp</text>
<polygon fill="none" stroke="#29235c" stroke-width="2" points="115.66,-743.11 115.66,-1225.11 472.66,-1225.11 472.66,-743.11 115.66,-743.11"/>
</g>
<!-- usersdata -->
<g id="usersdata" class="node">
<title>usersdata</title>
<ellipse fill="none" stroke="black" stroke-width="0" cx="960.19" cy="-1104.11" rx="216.25" ry="172.57"/>
<polygon fill="#1d71b8" stroke="transparent" points="809.19,-1164.11 809.19,-1224.11 1111.19,-1224.11 1111.19,-1164.11 809.19,-1164.11"/>
<polygon fill="none" stroke="#29235c" points="809.19,-1164.11 809.19,-1224.11 1111.19,-1224.11 1111.19,-1164.11 809.19,-1164.11"/>
<text text-anchor="start" x="827.69" y="-1185.31" font-family="Helvetica,sans-Serif" font-weight="bold" font-size="32.00" fill="#ffffff"> &#160;&#160;&#160;&#160;&#160;&#160;usersdata &#160;&#160;&#160;&#160;&#160;&#160;</text>
<polygon fill="#e7e2dd" stroke="transparent" points="809.19,-1104.11 809.19,-1164.11 1111.19,-1164.11 1111.19,-1104.11 809.19,-1104.11"/>
<polygon fill="none" stroke="#29235c" points="809.19,-1104.11 809.19,-1164.11 1111.19,-1164.11 1111.19,-1104.11 809.19,-1104.11"/>
<text text-anchor="start" x="820.19" y="-1124.31" font-family="Helvetica,sans-Serif" font-size="32.00" fill="#29235c">id_user &#160;&#160;&#160;</text>
<text text-anchor="start" x="1002.39" y="-1125.31" font-family="Helvetica,sans-Serif" font-style="italic" font-size="32.00" fill="#29235c">integer</text>
<polygon fill="#e7e2dd" stroke="transparent" points="809.19,-1044.11 809.19,-1104.11 1111.19,-1104.11 1111.19,-1044.11 809.19,-1044.11"/>
<polygon fill="none" stroke="#29235c" points="809.19,-1044.11 809.19,-1104.11 1111.19,-1104.11 1111.19,-1044.11 809.19,-1044.11"/>
<text text-anchor="start" x="820.1" y="-1064.31" font-family="Helvetica,sans-Serif" font-size="32.00" fill="#29235c">gender &#160;&#160;&#160;</text>
<text text-anchor="start" x="954.81" y="-1065.31" font-family="Helvetica,sans-Serif" font-style="italic" font-size="32.00" fill="#29235c">varchar(1)</text>
<polygon fill="#e7e2dd" stroke="transparent" points="809.19,-984.11 809.19,-1044.11 1111.19,-1044.11 1111.19,-984.11 809.19,-984.11"/>
<polygon fill="none" stroke="#29235c" points="809.19,-984.11 809.19,-1044.11 1111.19,-1044.11 1111.19,-984.11 809.19,-984.11"/>
<text text-anchor="start" x="820.19" y="-1004.31" font-family="Helvetica,sans-Serif" font-size="32.00" fill="#29235c">biography &#160;&#160;&#160;</text>
<text text-anchor="start" x="1048.61" y="-1005.31" font-family="Helvetica,sans-Serif" font-style="italic" font-size="32.00" fill="#29235c">text</text>
<polygon fill="none" stroke="#29235c" stroke-width="2" points="808.19,-983.11 808.19,-1225.11 1112.19,-1225.11 1112.19,-983.11 808.19,-983.11"/>
</g>
<!-- users&#45;&gt;usersdata -->
<!-- users&#45;&gt;usersdata -->
<g id="edge6" class="edge">
<title>users:e&#45;&gt;usersdata:w</title>
<path fill="none" stroke="#29235c" stroke-width="3" d="M473.16,-1134.11C618.57,-1134.11 657.48,-1134.11 797.9,-1134.11"/>
<polygon fill="#29235c" stroke="#29235c" stroke-width="3" points="798.19,-1137.61 808.19,-1134.11 798.19,-1130.61 798.19,-1137.61"/>
<text text-anchor="middle" x="817.08" y="-1143.71" font-family="Helvetica,sans-Serif" font-size="32.00" fill="#29235c">1</text>
<text text-anchor="middle" x="482.05" y="-1143.71" font-family="Helvetica,sans-Serif" font-size="32.00" fill="#29235c">1</text>
</g>
<!-- user_interest -->
<g id="user_interest" class="node">
<title>user_interest</title>
<ellipse fill="none" stroke="black" stroke-width="0" cx="960.19" cy="-1449.11" rx="236.76" ry="130.22"/>
<polygon fill="#1d71b8" stroke="transparent" points="795.19,-1479.11 795.19,-1539.11 1126.19,-1539.11 1126.19,-1479.11 795.19,-1479.11"/>
<polygon fill="none" stroke="#29235c" points="795.19,-1479.11 795.19,-1539.11 1126.19,-1539.11 1126.19,-1479.11 795.19,-1479.11"/>
<text text-anchor="start" x="805.98" y="-1500.31" font-family="Helvetica,sans-Serif" font-weight="bold" font-size="32.00" fill="#ffffff"> &#160;&#160;&#160;&#160;&#160;&#160;user_interest &#160;&#160;&#160;&#160;&#160;&#160;</text>
<polygon fill="#e7e2dd" stroke="transparent" points="795.19,-1419.11 795.19,-1479.11 1126.19,-1479.11 1126.19,-1419.11 795.19,-1419.11"/>
<polygon fill="none" stroke="#29235c" points="795.19,-1419.11 795.19,-1479.11 1126.19,-1479.11 1126.19,-1419.11 795.19,-1419.11"/>
<text text-anchor="start" x="806.19" y="-1439.31" font-family="Helvetica,sans-Serif" font-size="32.00" fill="#29235c">id_user &#160;&#160;&#160;</text>
<text text-anchor="start" x="1017.39" y="-1440.31" font-family="Helvetica,sans-Serif" font-style="italic" font-size="32.00" fill="#29235c">integer</text>
<polygon fill="#e7e2dd" stroke="transparent" points="795.19,-1359.11 795.19,-1419.11 1126.19,-1419.11 1126.19,-1359.11 795.19,-1359.11"/>
<polygon fill="none" stroke="#29235c" points="795.19,-1359.11 795.19,-1419.11 1126.19,-1419.11 1126.19,-1359.11 795.19,-1359.11"/>
<text text-anchor="start" x="806.19" y="-1379.31" font-family="Helvetica,sans-Serif" font-size="32.00" fill="#29235c">id_interest &#160;&#160;&#160;</text>
<text text-anchor="start" x="1017.39" y="-1380.31" font-family="Helvetica,sans-Serif" font-style="italic" font-size="32.00" fill="#29235c">integer</text>
<polygon fill="none" stroke="#29235c" stroke-width="2" points="793.69,-1358.11 793.69,-1540.11 1126.69,-1540.11 1126.69,-1358.11 793.69,-1358.11"/>
</g>
<!-- users&#45;&gt;user_interest -->
<!-- users&#45;&gt;user_interest -->
<g id="edge8" class="edge">
<title>users:e&#45;&gt;user_interest:w</title>
<path fill="none" stroke="#29235c" stroke-width="3" d="M473.16,-1134.11C568.43,-1134.11 556.35,-1219.34 624.31,-1286.11 696.48,-1357 690.09,-1443.17 784.14,-1448.81"/>
<polygon fill="#29235c" stroke="#29235c" stroke-width="3" points="784.09,-1452.32 794.19,-1449.11 784.29,-1445.32 784.09,-1452.32"/>
<text text-anchor="middle" x="800.41" y="-1458.71" font-family="Helvetica,sans-Serif" font-size="32.00" fill="#29235c">*</text>
<text text-anchor="middle" x="482.05" y="-1105.31" font-family="Helvetica,sans-Serif" font-size="32.00" fill="#29235c">1</text>
</g>
<!-- user_picture -->
<g id="user_picture" class="node">
<title>user_picture</title>
<ellipse fill="none" stroke="black" stroke-width="0" cx="960.19" cy="-662.11" rx="230.53" ry="130.22"/>
<polygon fill="#1d71b8" stroke="transparent" points="799.19,-692.11 799.19,-752.11 1121.19,-752.11 1121.19,-692.11 799.19,-692.11"/>
<polygon fill="none" stroke="#29235c" points="799.19,-692.11 799.19,-752.11 1121.19,-752.11 1121.19,-692.11 799.19,-692.11"/>
<text text-anchor="start" x="809.92" y="-713.31" font-family="Helvetica,sans-Serif" font-weight="bold" font-size="32.00" fill="#ffffff"> &#160;&#160;&#160;&#160;&#160;&#160;user_picture &#160;&#160;&#160;&#160;&#160;&#160;</text>
<polygon fill="#e7e2dd" stroke="transparent" points="799.19,-632.11 799.19,-692.11 1121.19,-692.11 1121.19,-632.11 799.19,-632.11"/>
<polygon fill="none" stroke="#29235c" points="799.19,-632.11 799.19,-692.11 1121.19,-692.11 1121.19,-632.11 799.19,-632.11"/>
<text text-anchor="start" x="810.19" y="-652.31" font-family="Helvetica,sans-Serif" font-size="32.00" fill="#29235c">id_user &#160;&#160;&#160;</text>
<text text-anchor="start" x="1012.39" y="-653.31" font-family="Helvetica,sans-Serif" font-style="italic" font-size="32.00" fill="#29235c">integer</text>
<polygon fill="#e7e2dd" stroke="transparent" points="799.19,-572.11 799.19,-632.11 1121.19,-632.11 1121.19,-572.11 799.19,-572.11"/>
<polygon fill="none" stroke="#29235c" points="799.19,-572.11 799.19,-632.11 1121.19,-632.11 1121.19,-572.11 799.19,-572.11"/>
<text text-anchor="start" x="810.19" y="-592.31" font-family="Helvetica,sans-Serif" font-size="32.00" fill="#29235c">id_picture &#160;&#160;&#160;</text>
<text text-anchor="start" x="1012.39" y="-593.31" font-family="Helvetica,sans-Serif" font-style="italic" font-size="32.00" fill="#29235c">integer</text>
<polygon fill="none" stroke="#29235c" stroke-width="2" points="798.19,-571.11 798.19,-753.11 1122.19,-753.11 1122.19,-571.11 798.19,-571.11"/>
</g>
<!-- users&#45;&gt;user_picture -->
<!-- users&#45;&gt;user_picture -->
<g id="edge12" class="edge">
<title>users:e&#45;&gt;user_picture:w</title>
<path fill="none" stroke="#29235c" stroke-width="3" d="M473.16,-1134.11C533.85,-1134.11 716.27,-705.32 788.38,-665.12"/>
<polygon fill="#29235c" stroke="#29235c" stroke-width="3" points="789.66,-668.39 798.19,-662.11 787.6,-661.7 789.66,-668.39"/>
<text text-anchor="middle" x="804.41" y="-671.71" font-family="Helvetica,sans-Serif" font-size="32.00" fill="#29235c">*</text>
<text text-anchor="middle" x="464.26" y="-1143.71" font-family="Helvetica,sans-Serif" font-size="32.00" fill="#29235c">1</text>
</g>
<!-- user_sexualpreference -->
<g id="user_sexualpreference" class="node">
<title>user_sexualpreference</title>
<ellipse fill="none" stroke="black" stroke-width="0" cx="960.19" cy="-226.11" rx="335.75" ry="130.22"/>
<polygon fill="#1d71b8" stroke="transparent" points="725.19,-256.11 725.19,-316.11 1196.19,-316.11 1196.19,-256.11 725.19,-256.11"/>
<polygon fill="none" stroke="#29235c" points="725.19,-256.11 725.19,-316.11 1196.19,-316.11 1196.19,-256.11 725.19,-256.11"/>
<text text-anchor="start" x="735.73" y="-277.31" font-family="Helvetica,sans-Serif" font-weight="bold" font-size="32.00" fill="#ffffff"> &#160;&#160;&#160;&#160;&#160;&#160;user_sexualpreference &#160;&#160;&#160;&#160;&#160;&#160;</text>
<polygon fill="#e7e2dd" stroke="transparent" points="725.19,-196.11 725.19,-256.11 1196.19,-256.11 1196.19,-196.11 725.19,-196.11"/>
<polygon fill="none" stroke="#29235c" points="725.19,-196.11 725.19,-256.11 1196.19,-256.11 1196.19,-196.11 725.19,-196.11"/>
<text text-anchor="start" x="736.19" y="-216.31" font-family="Helvetica,sans-Serif" font-size="32.00" fill="#29235c">id_user &#160;&#160;&#160;</text>
<text text-anchor="start" x="1087.39" y="-217.31" font-family="Helvetica,sans-Serif" font-style="italic" font-size="32.00" fill="#29235c">integer</text>
<polygon fill="#e7e2dd" stroke="transparent" points="725.19,-136.11 725.19,-196.11 1196.19,-196.11 1196.19,-136.11 725.19,-136.11"/>
<polygon fill="none" stroke="#29235c" points="725.19,-136.11 725.19,-196.11 1196.19,-196.11 1196.19,-136.11 725.19,-136.11"/>
<text text-anchor="start" x="736.19" y="-156.31" font-family="Helvetica,sans-Serif" font-size="32.00" fill="#29235c">id_sexualpreference &#160;&#160;&#160;</text>
<text text-anchor="start" x="1087.39" y="-157.31" font-family="Helvetica,sans-Serif" font-style="italic" font-size="32.00" fill="#29235c">integer</text>
<polygon fill="none" stroke="#29235c" stroke-width="2" points="723.69,-135.11 723.69,-317.11 1196.69,-317.11 1196.69,-135.11 723.69,-135.11"/>
</g>
<!-- users&#45;&gt;user_sexualpreference -->
<!-- users&#45;&gt;user_sexualpreference -->
<g id="edge2" class="edge">
<title>users:e&#45;&gt;user_sexualpreference:w</title>
<path fill="none" stroke="#29235c" stroke-width="3" d="M473.16,-1134.11C679.03,-1134.11 520.3,-256.01 714.07,-226.85"/>
<polygon fill="#29235c" stroke="#29235c" stroke-width="3" points="714.47,-230.33 724.19,-226.11 713.96,-223.35 714.47,-230.33"/>
<text text-anchor="middle" x="730.41" y="-197.31" font-family="Helvetica,sans-Serif" font-size="32.00" fill="#29235c">*</text>
<text text-anchor="middle" x="464.26" y="-1105.31" font-family="Helvetica,sans-Serif" font-size="32.00" fill="#29235c">1</text>
</g>
<!-- sexualpreference -->
<g id="sexualpreference" class="node">
<title>sexualpreference</title>
<ellipse fill="none" stroke="black" stroke-width="0" cx="294.16" cy="-130.11" rx="291.16" ry="130.22"/>
<polygon fill="#1d71b8" stroke="transparent" points="90.16,-160.11 90.16,-220.11 498.16,-220.11 498.16,-160.11 90.16,-160.11"/>
<polygon fill="none" stroke="#29235c" points="90.16,-160.11 90.16,-220.11 498.16,-220.11 498.16,-160.11 90.16,-160.11"/>
<text text-anchor="start" x="109.21" y="-181.31" font-family="Helvetica,sans-Serif" font-weight="bold" font-size="32.00" fill="#ffffff"> &#160;&#160;&#160;&#160;&#160;&#160;sexualpreference &#160;&#160;&#160;&#160;&#160;&#160;</text>
<polygon fill="#e7e2dd" stroke="transparent" points="90.16,-100.11 90.16,-160.11 498.16,-160.11 498.16,-100.11 90.16,-100.11"/>
<polygon fill="none" stroke="#29235c" points="90.16,-100.11 90.16,-160.11 498.16,-160.11 498.16,-100.11 90.16,-100.11"/>
<text text-anchor="start" x="101.16" y="-121.31" font-family="Helvetica,sans-Serif" font-weight="bold" font-size="32.00" fill="#29235c">id</text>
<text text-anchor="start" x="126.05" y="-121.31" font-family="Helvetica,sans-Serif" font-size="32.00" fill="#29235c"> &#160;&#160;&#160;</text>
<text text-anchor="start" x="389.35" y="-121.31" font-family="Helvetica,sans-Serif" font-style="italic" font-size="32.00" fill="#29235c">integer</text>
<polygon fill="#e7e2dd" stroke="transparent" points="90.16,-40.11 90.16,-100.11 498.16,-100.11 498.16,-40.11 90.16,-40.11"/>
<polygon fill="none" stroke="#29235c" points="90.16,-40.11 90.16,-100.11 498.16,-100.11 498.16,-40.11 90.16,-40.11"/>
<text text-anchor="start" x="100.67" y="-60.31" font-family="Helvetica,sans-Serif" font-size="32.00" fill="#29235c">sexualpreference &#160;&#160;&#160;</text>
<text text-anchor="start" x="380.82" y="-61.31" font-family="Helvetica,sans-Serif" font-style="italic" font-size="32.00" fill="#29235c">varchar</text>
<polygon fill="none" stroke="#29235c" stroke-width="2" points="89.16,-39.11 89.16,-221.11 499.16,-221.11 499.16,-39.11 89.16,-39.11"/>
</g>
<!-- sexualpreference&#45;&gt;user_sexualpreference -->
<!-- sexualpreference&#45;&gt;user_sexualpreference -->
<g id="edge4" class="edge">
<title>sexualpreference:e&#45;&gt;user_sexualpreference:w</title>
<path fill="none" stroke="#29235c" stroke-width="3" d="M499.16,-130.11C596.98,-130.11 621.28,-163.69 714.07,-165.98"/>
<polygon fill="#29235c" stroke="#29235c" stroke-width="3" points="714.15,-169.49 724.19,-166.11 714.23,-162.49 714.15,-169.49"/>
<text text-anchor="middle" x="733.08" y="-137.31" font-family="Helvetica,sans-Serif" font-size="32.00" fill="#29235c">1</text>
<text text-anchor="middle" x="508.05" y="-130.11" font-family="Helvetica,sans-Serif" font-size="32.00" fill="#29235c">1</text>
</g>
<!-- interest -->
<g id="interest" class="node">
<title>interest</title>
<ellipse fill="none" stroke="black" stroke-width="0" cx="294.16" cy="-1474.11" rx="192.17" ry="130.22"/>
<polygon fill="#1d71b8" stroke="transparent" points="160.16,-1504.11 160.16,-1564.11 428.16,-1564.11 428.16,-1504.11 160.16,-1504.11"/>
<polygon fill="none" stroke="#29235c" points="160.16,-1504.11 160.16,-1564.11 428.16,-1564.11 428.16,-1504.11 160.16,-1504.11"/>
<text text-anchor="start" x="179.45" y="-1525.31" font-family="Helvetica,sans-Serif" font-weight="bold" font-size="32.00" fill="#ffffff"> &#160;&#160;&#160;&#160;&#160;&#160;interest &#160;&#160;&#160;&#160;&#160;&#160;</text>
<polygon fill="#e7e2dd" stroke="transparent" points="160.16,-1444.11 160.16,-1504.11 428.16,-1504.11 428.16,-1444.11 160.16,-1444.11"/>
<polygon fill="none" stroke="#29235c" points="160.16,-1444.11 160.16,-1504.11 428.16,-1504.11 428.16,-1444.11 160.16,-1444.11"/>
<text text-anchor="start" x="171.16" y="-1465.31" font-family="Helvetica,sans-Serif" font-weight="bold" font-size="32.00" fill="#29235c">id</text>
<text text-anchor="start" x="196.05" y="-1465.31" font-family="Helvetica,sans-Serif" font-size="32.00" fill="#29235c"> &#160;&#160;&#160;</text>
<text text-anchor="start" x="319.35" y="-1465.31" font-family="Helvetica,sans-Serif" font-style="italic" font-size="32.00" fill="#29235c">integer</text>
<polygon fill="#e7e2dd" stroke="transparent" points="160.16,-1384.11 160.16,-1444.11 428.16,-1444.11 428.16,-1384.11 160.16,-1384.11"/>
<polygon fill="none" stroke="#29235c" points="160.16,-1384.11 160.16,-1444.11 428.16,-1444.11 428.16,-1384.11 160.16,-1384.11"/>
<text text-anchor="start" x="170.92" y="-1404.31" font-family="Helvetica,sans-Serif" font-size="32.00" fill="#29235c">interest &#160;&#160;&#160;</text>
<text text-anchor="start" x="310.82" y="-1405.31" font-family="Helvetica,sans-Serif" font-style="italic" font-size="32.00" fill="#29235c">varchar</text>
<polygon fill="none" stroke="#29235c" stroke-width="2" points="159.16,-1383.11 159.16,-1565.11 429.16,-1565.11 429.16,-1383.11 159.16,-1383.11"/>
</g>
<!-- interest&#45;&gt;user_interest -->
<!-- interest&#45;&gt;user_interest -->
<g id="edge10" class="edge">
<title>interest:e&#45;&gt;user_interest:w</title>
<path fill="none" stroke="#29235c" stroke-width="3" d="M429.16,-1474.11C592.32,-1474.11 626.25,-1392.56 784.11,-1389.21"/>
<polygon fill="#29235c" stroke="#29235c" stroke-width="3" points="784.23,-1392.71 794.19,-1389.11 784.15,-1385.71 784.23,-1392.71"/>
<text text-anchor="middle" x="803.08" y="-1398.71" font-family="Helvetica,sans-Serif" font-size="32.00" fill="#29235c">1</text>
<text text-anchor="middle" x="438.05" y="-1483.71" font-family="Helvetica,sans-Serif" font-size="32.00" fill="#29235c">1</text>
</g>
<!-- picture -->
<g id="picture" class="node">
<title>picture</title>
<ellipse fill="none" stroke="black" stroke-width="0" cx="294.16" cy="-451.11" rx="294.31" ry="172.57"/>
<polygon fill="#1d71b8" stroke="transparent" points="88.16,-511.11 88.16,-571.11 500.16,-571.11 500.16,-511.11 88.16,-511.11"/>
<polygon fill="none" stroke="#29235c" points="88.16,-511.11 88.16,-571.11 500.16,-571.11 500.16,-511.11 88.16,-511.11"/>
<text text-anchor="start" x="183.9" y="-532.31" font-family="Helvetica,sans-Serif" font-weight="bold" font-size="32.00" fill="#ffffff"> &#160;&#160;&#160;&#160;&#160;&#160;picture &#160;&#160;&#160;&#160;&#160;&#160;</text>
<polygon fill="#e7e2dd" stroke="transparent" points="88.16,-451.11 88.16,-511.11 500.16,-511.11 500.16,-451.11 88.16,-451.11"/>
<polygon fill="none" stroke="#29235c" points="88.16,-451.11 88.16,-511.11 500.16,-511.11 500.16,-451.11 88.16,-451.11"/>
<text text-anchor="start" x="99.16" y="-472.31" font-family="Helvetica,sans-Serif" font-weight="bold" font-size="32.00" fill="#29235c">id</text>
<text text-anchor="start" x="124.05" y="-472.31" font-family="Helvetica,sans-Serif" font-size="32.00" fill="#29235c"> &#160;&#160;&#160;</text>
<text text-anchor="start" x="391.35" y="-472.31" font-family="Helvetica,sans-Serif" font-style="italic" font-size="32.00" fill="#29235c">integer</text>
<polygon fill="#e7e2dd" stroke="transparent" points="88.16,-391.11 88.16,-451.11 500.16,-451.11 500.16,-391.11 88.16,-391.11"/>
<polygon fill="none" stroke="#29235c" points="88.16,-391.11 88.16,-451.11 500.16,-451.11 500.16,-391.11 88.16,-391.11"/>
<text text-anchor="start" x="99.16" y="-411.31" font-family="Helvetica,sans-Serif" font-size="32.00" fill="#29235c">picture_path &#160;&#160;&#160;</text>
<text text-anchor="start" x="382.48" y="-412.31" font-family="Helvetica,sans-Serif" font-style="italic" font-size="32.00" fill="#29235c">varchar</text>
<polygon fill="#e7e2dd" stroke="transparent" points="88.16,-331.11 88.16,-391.11 500.16,-391.11 500.16,-331.11 88.16,-331.11"/>
<polygon fill="none" stroke="#29235c" points="88.16,-331.11 88.16,-391.11 500.16,-391.11 500.16,-331.11 88.16,-331.11"/>
<text text-anchor="start" x="98.97" y="-351.31" font-family="Helvetica,sans-Serif" font-size="32.00" fill="#29235c">is_profile_picture &#160;&#160;&#160;</text>
<text text-anchor="start" x="375.74" y="-352.31" font-family="Helvetica,sans-Serif" font-style="italic" font-size="32.00" fill="#29235c">boolean</text>
<polygon fill="none" stroke="#29235c" stroke-width="2" points="87.16,-330.11 87.16,-572.11 501.16,-572.11 501.16,-330.11 87.16,-330.11"/>
</g>
<!-- picture&#45;&gt;user_picture -->
<!-- picture&#45;&gt;user_picture -->
<g id="edge14" class="edge">
<title>picture:e&#45;&gt;user_picture:w</title>
<path fill="none" stroke="#29235c" stroke-width="3" d="M501.16,-481.11C640.22,-481.11 654.98,-596.27 787.98,-601.89"/>
<polygon fill="#29235c" stroke="#29235c" stroke-width="3" points="788.12,-605.4 798.19,-602.11 788.26,-598.4 788.12,-605.4"/>
<text text-anchor="middle" x="807.08" y="-611.71" font-family="Helvetica,sans-Serif" font-size="32.00" fill="#29235c">1</text>
<text text-anchor="middle" x="510.05" y="-490.71" font-family="Helvetica,sans-Serif" font-size="32.00" fill="#29235c">1</text>
</g>
</g>
</svg>
